#!OML:ASF F:\VICON\USERDATA\INSTALL\rory3\rory3.ASF
:FULLY-SPECIFIED
:DEGREES
715
root -1.94164 18.5466 0.752284 -1.75569 -4.24467 6.28374
lowerback 9.78715 0.74603 3.29136
upperback 2.59122 1.29654 -0.443487
thorax -2.7061 0.631639 -2.46601
lowerneck -7.54057 -6.07621 -4.69007
upperneck 1.14608 -7.86774 5.3702
head 2.11673 -3.82164 2.19659
rclavicle -9.34288e-015 -3.18055e-015
rhumerus 65.6348 -48.7213 -78.9179
rradius 33.8749
rwrist -0.449062
rhand -66.7491 -1.43641
rfingers 7.12502
rthumb -38.5502 -27.0838
lclavicle -9.34288e-015 -3.18055e-015
lhumerus -33.9765 -1.50084 76.5347
lradius 44.7595
lwrist 7.89756
lhand -25.5677 24.529
lfingers 7.12502
lthumb 0.963285 54.5066
rfemur -12.7359 15.3247 11.1577
rtibia 34.8288
rfoot -19.1372 -12.7736
rtoes -7.77627
lfemur -3.00926 -3.016 -7.1795
ltibia 25.2707
lfoot 1.71907 22.65
ltoes -10.7823
716
root -1.90786 18.5437 0.746368 -1.68241 -4.23004 6.09492
lowerback 9.74252 0.798975 3.33288
upperback 2.56772 1.37122 -0.397171
thorax -2.70107 0.668384 -2.44926
lowerneck -7.67825 -5.91894 -4.75016
upperneck 1.317 -7.65076 5.32356
head 2.18753 -3.71227 2.19873
rclavicle -1.19271e-015 -1.43125e-014
rhumerus 64.8985 -48.4151 -78.4882
rradius 34.0955
rwrist -0.550191
rhand -66.8005 -1.07131
rfingers 7.12502
rthumb -38.5986 -26.7051
lclavicle -1.19271e-015 -1.43125e-014
lhumerus -33.9116 -1.43237 76.526
lradius 44.7844
lwrist 7.94337
lhand -25.5512 24.6545
lfingers 7.12502
lthumb 0.979166 54.632
rfemur -12.8055 15.2214 11.2323
rtibia 34.8036
rfoot -19.0898 -12.7413
rtoes -8.06593
lfemur -3.1296 -3.05933 -7.0636
ltibia 25.377
lfoot 1.50488 22.4939
ltoes -11.0372
717
root -1.87127 18.5423 0.745329 -1.68784 -4.15746 6.03983
lowerback 9.73752 0.832263 3.29047
upperback 2.53565 1.41128 -0.409485
thorax -2.72976 0.687535 -2.44315
lowerneck -7.67692 -5.74608 -4.8457
upperneck 1.4149 -7.41524 5.34326
head 2.21308 -3.59478 2.23456
rclavicle -1.35174e-014 5.56597e-015
rhumerus 63.9896 -48.0601 -77.9233
rradius 34.3563
rwrist -0.703628
rhand -66.6919 -2.60656
rfingers 7.12502
rthumb -38.4962 -28.269
lclavicle -1.35174e-014 5.56597e-015
lhumerus -33.9193 -1.37304 76.4933
lradius 44.8935
lwrist 8.02527
lhand -25.5678 24.7181
lfingers 7.12502
lthumb 0.963147 54.6957
rfemur -12.7514 15.0644 11.1585
rtibia 34.7709
rfoot -19.086 -12.6544
rtoes -8.05694
lfemur -3.20123 -3.169 -7.12534
ltibia 25.5629
lfoot 1.21505 22.3577
ltoes -11.2487
718
root -1.83558 18.5373 0.742254 -1.67752 -4.06018 5.96727
lowerback 9.65408 0.869947 3.23202
upperback 2.51893 1.45259 -0.424607
thorax -2.6995 0.708743 -2.42895
lowerneck -7.65281 -5.58972 -4.75891
upperneck 1.49804 -7.21378 5.2377
head 2.21574 -3.49649 2.19496
rclavicle 2.76311e-014 -1.27222e-014
rhumerus 63.211 -47.6993 -77.4744
rradius 34.5763
rwrist -0.922
rhand -66.8519 -3.7695
rfingers 7.12502
rthumb -38.6472 -29.3897
lclavicle 2.76311e-014 -1.27222e-014
lhumerus -33.8757 -1.34036 76.4707
lradius 44.9585
lwrist 8.04246
lhand -25.6354 24.6647
lfingers 7.12502
lthumb 0.897844 54.6425
rfemur -12.7312 15.0388 11.1129
rtibia 34.7308
rfoot -19.0427 -12.7249
rtoes -8.10829
lfemur -3.30284 -3.22762 -7.15297
ltibia 25.7571
lfoot 0.904229 22.034
ltoes -11.8576
719
root -1.79807 18.5279 0.735651 -1.60898 -4.00009 5.72706
lowerback 9.59922 0.941703 3.32918
upperback 2.46576 1.55731 -0.394086
thorax -2.71571 0.759442 -2.46336
lowerneck -7.93301 -5.48599 -4.75223
upperneck 1.92176 -7.07706 5.19059
head 2.39873 -3.42378 2.17667
rclavicle -1.11319e-014 3.18055e-015
rhumerus 62.2006 -47.353 -76.6764
rradius 34.7354
rwrist -1.35295
rhand -67.2906 -3.62604
rfingers 7.12502
rthumb -39.0608 -29.1286
lclavicle -1.11319e-014 3.18055e-015
lhumerus -33.8611 -1.38719 76.4809
lradius 45.0329
lwrist 8.01487
lhand -25.692 24.7166
lfingers 7.12502
lthumb 0.843183 54.6947
rfemur -12.7791 15.112 11.247
rtibia 34.6581
rfoot -18.9275 -12.9268
rtoes -8.41871
lfemur -3.4339 -3.13208 -6.97405
ltibia 25.8882
lfoot 0.739497 21.5954
ltoes -12.7498
720
root -1.75899 18.5231 0.732469 -1.57392 -3.94764 5.46917
lowerback 9.58961 1.01024 3.45827
upperback 2.43462 1.66147 -0.381614
thorax -2.7323 0.809942 -2.53515
lowerneck -8.32598 -5.3585 -4.85888
upperneck 2.36926 -6.90583 5.38729
head 2.62829 -3.32621 2.26081
rclavicle -8.74653e-015 -3.97569e-015
rhumerus 61.4788 -47.0522 -76.2906
rradius 34.9247
rwrist -1.53172
rhand -67.465 -2.18835
rfingers 7.12502
rthumb -39.2253 -27.6435
lclavicle -8.74653e-015 -3.97569e-015
lhumerus -33.8468 -1.52891 76.5107
lradius 45.2326
lwrist 8.2597
lhand -25.9017 25.1837
lfingers 7.12502
lthumb 0.640684 55.1625
rfemur -12.7425 15.1866 11.4101
rtibia 34.5638
rfoot -18.8641 -13.0692
rtoes -8.59607
lfemur -3.49215 -3.11948 -6.79389
ltibia 26.0034
lfoot 0.483007 21.4193
ltoes -12.6292
721
root -1.71873 18.525 0.734622 -1.6281 -3.8097 5.30817
lowerback 9.51912 1.03621 3.51272
upperback 2.4759 1.6975 -0.394889
thorax -2.64591 0.830052 -2.58099
lowerneck -8.54874 -5.22915 -4.86397
upperneck 2.61677 -6.73897 5.50548
head 2.75083 -3.2351 2.3061
rclavicle -2.18663e-015 7.95139e-015
rhumerus 61.071 -46.7127 -76.2676
rradius 35.1527
rwrist -1.63695
rhand -67.5806 -2.29591
rfingers 7.12502
rthumb -39.3342 -27.7194
lclavicle -2.18663e-015 7.95139e-015
lhumerus -33.752 -1.76033 76.608
lradius 45.4777
lwrist 8.74354
lhand -26.5433 25.8838
lfingers 7.12502
lthumb 0.0209642 55.8636
rfemur -12.5631 15.0957 11.4625
rtibia 34.4666
rfoot -18.8819 -13.0507
rtoes -8.58961
lfemur -3.43349 -3.2571 -6.77203
ltibia 26.0555
lfoot 0.232313 21.2986
ltoes -12.836
722
root -1.67835 18.522 0.731294 -1.61469 -3.58696 5.19409
lowerback 9.451 1.0595 3.47792
upperback 2.46699 1.72255 -0.406027
thorax -2.61653 0.843234 -2.57402
lowerneck -8.72435 -5.13542 -4.7702
upperneck 2.82725 -6.61982 5.41983
head 2.84003 -3.17378 2.26351
rclavicle 5.1684e-015 3.97569e-015
rhumerus 60.3421 -46.3267 -75.7964
rradius 35.428
rwrist -2.04945
rhand -67.8146 -3.85861
rfingers 7.12502
rthumb -39.5546 -29.2175
lclavicle 5.1684e-015 3.97569e-015
lhumerus -33.6797 -1.96297 76.6919
lradius 45.6896
lwrist 8.93686
lhand -26.948 26.1521
lfingers 7.12502
lthumb -0.369912 56.1315
rfemur -12.4972 14.9143 11.4454
rtibia 34.3915
rfoot -18.8299 -13.1008
rtoes -8.79687
lfemur -3.46508 -3.38342 -6.78348
ltibia 26.0006
lfoot 0.080685 21.0159
ltoes -12.9279
723
root -1.63748 18.5152 0.724554 -1.60997 -3.38754 5.22166
lowerback 9.44743 1.12566 3.31013
upperback 2.41891 1.79268 -0.48733
thorax -2.6624 0.877327 -2.57253
lowerneck -8.63005 -5.04514 -4.70044
upperneck 2.81282 -6.50985 5.41857
head 2.80797 -3.11974 2.25899
rclavicle 1.74931e-014 8.74653e-015
rhumerus 59.3166 -45.9312 -75.0446
rradius 35.6532
rwrist -2.27413
rhand -68.1016 -4.93045
rfingers 7.12502
rthumb -39.8248 -30.2091
lclavicle 1.74931e-014 8.74653e-015
lhumerus -33.6645 -2.1245 76.7087
lradius 45.8673
lwrist 8.90469
lhand -26.4432 25.6011
lfingers 7.12502
lthumb 0.117647 55.5808
rfemur -12.4636 14.8573 11.2643
rtibia 34.3367
rfoot -18.8251 -13.1915
rtoes -8.73198
lfemur -3.50416 -3.46854 -6.93653
ltibia 25.9008
lfoot 0.0611658 20.5762
ltoes -13.3046
